<mxfile host="app.diagrams.net" agent="Mozilla/5.0 (Windows NT 10.0; Win64; x64) AppleWebKit/537.36 (KHTML, like Gecko) Chrome/134.0.0.0 Safari/537.36" version="26.1.3">
  <diagram name="Страница — 1" id="hi3maOYxdtd5-xxtNOdB">
    <mxGraphModel dx="928" dy="472" grid="1" gridSize="10" guides="1" tooltips="1" connect="1" arrows="1" fold="1" page="1" pageScale="1" pageWidth="827" pageHeight="1169" math="0" shadow="0">
      <root>
        <mxCell id="0" />
        <mxCell id="1" parent="0" />
        <mxCell id="FxxYlGLEtM2QjZ5-GXDw-28" style="edgeStyle=orthogonalEdgeStyle;rounded=0;orthogonalLoop=1;jettySize=auto;html=1;fontSize=14;" edge="1" parent="1" source="FxxYlGLEtM2QjZ5-GXDw-29" target="FxxYlGLEtM2QjZ5-GXDw-31">
          <mxGeometry relative="1" as="geometry">
            <mxPoint x="230" y="410" as="targetPoint" />
          </mxGeometry>
        </mxCell>
        <mxCell id="FxxYlGLEtM2QjZ5-GXDw-29" value="Начало&lt;br&gt;&lt;div&gt;&lt;div&gt;IsEmpty&lt;/div&gt;&lt;/div&gt;" style="rounded=1;whiteSpace=wrap;html=1;fontSize=14;" vertex="1" parent="1">
          <mxGeometry x="170" y="310" width="120" height="60" as="geometry" />
        </mxCell>
        <mxCell id="FxxYlGLEtM2QjZ5-GXDw-30" style="edgeStyle=orthogonalEdgeStyle;rounded=0;orthogonalLoop=1;jettySize=auto;html=1;fontSize=14;" edge="1" parent="1" source="FxxYlGLEtM2QjZ5-GXDw-31" target="FxxYlGLEtM2QjZ5-GXDw-33">
          <mxGeometry relative="1" as="geometry">
            <mxPoint x="230" y="490" as="targetPoint" />
          </mxGeometry>
        </mxCell>
        <mxCell id="FxxYlGLEtM2QjZ5-GXDw-31" value="Ввести lst" style="shape=parallelogram;perimeter=parallelogramPerimeter;whiteSpace=wrap;html=1;fixedSize=1;fontSize=14;" vertex="1" parent="1">
          <mxGeometry x="170" y="390" width="120" height="60" as="geometry" />
        </mxCell>
        <mxCell id="FxxYlGLEtM2QjZ5-GXDw-32" style="edgeStyle=orthogonalEdgeStyle;rounded=0;orthogonalLoop=1;jettySize=auto;html=1;fontSize=14;" edge="1" parent="1" source="FxxYlGLEtM2QjZ5-GXDw-33" target="FxxYlGLEtM2QjZ5-GXDw-34">
          <mxGeometry relative="1" as="geometry">
            <mxPoint x="230" y="570" as="targetPoint" />
          </mxGeometry>
        </mxCell>
        <mxCell id="FxxYlGLEtM2QjZ5-GXDw-33" value="IsEmpty = (myList.count = 0)" style="rounded=0;whiteSpace=wrap;html=1;fontSize=14;" vertex="1" parent="1">
          <mxGeometry x="180" y="480" width="100" height="60" as="geometry" />
        </mxCell>
        <mxCell id="FxxYlGLEtM2QjZ5-GXDw-34" value="Конец&lt;div&gt;IsEmpty&lt;/div&gt;" style="rounded=1;whiteSpace=wrap;html=1;fontSize=14;" vertex="1" parent="1">
          <mxGeometry x="170" y="570" width="120" height="60" as="geometry" />
        </mxCell>
      </root>
    </mxGraphModel>
  </diagram>
</mxfile>
